<?xml version="1.0" standalone="no"?>
<!DOCTYPE svg PUBLIC "-//W3C//DTD SVG 20010904//EN"
 "http://www.w3.org/TR/2001/REC-SVG-20010904/DTD/svg10.dtd">
<svg version="1.0" xmlns="http://www.w3.org/2000/svg"
 width="988.000000pt" height="988.000000pt" viewBox="0 0 988.000000 988.000000"
 preserveAspectRatio="xMidYMid meet">
<metadata>
Created by potrace 1.11, written by Peter Selinger 2001-2013
</metadata>
<g transform="translate(0.000000,988.000000) scale(0.100000,-0.100000)"
fill="#000000" stroke="none">
<path d="M4163 9522 c-78 -196 -147 -375 -154 -397 -39 -128 -157 -301 -269
-394 -209 -174 -345 -224 -615 -224 -239 0 -320 27 -809 270 -317 158 -392
192 -402 181 -158 -164 -894 -967 -894 -976 0 -6 78 -168 174 -360 192 -385
197 -399 218 -633 17 -196 -15 -475 -65 -574 -111 -220 -319 -420 -509 -490
-40 -15 -235 -91 -433 -169 l-360 -142 0 -674 0 -674 360 -142 c198 -78 393
-154 433 -169 252 -93 506 -389 583 -680 24 -92 29 -267 10 -375 -44 -248 -53
-274 -237 -642 -96 -192 -174 -354 -174 -360 0 -7 204 -217 453 -466 l454
-454 353 177 c195 97 392 192 438 211 336 135 689 60 1023 -217 111 -93 230
-267 268 -394 7 -22 76 -201 154 -397 l142 -358 670 0 670 0 142 358 c78 196
147 375 154 397 53 175 199 357 387 483 272 182 475 211 863 122 120 -27 141
-36 479 -205 l353 -177 454 454 c249 249 453 459 453 466 0 6 -83 178 -184
380 -101 202 -197 406 -214 452 -84 238 -66 460 58 705 134 267 330 456 551
531 41 14 215 103 386 197 l313 172 -3 639 -2 640 -320 128 c-176 71 -364 144
-419 163 -246 85 -442 268 -577 540 -58 119 -81 217 -81 355 0 122 7 177 49
360 24 107 38 140 199 462 96 192 174 354 174 360 0 7 -204 217 -453 466
l-454 454 -353 -177 c-195 -97 -392 -192 -438 -211 -336 -135 -689 -60 -1023
217 -111 93 -230 267 -268 394 -7 22 -76 201 -154 397 l-142 358 -635 0 -635
0 -142 -358z m978 -2462 c354 -35 684 -148 959 -328 320 -209 563 -486 726
-827 140 -292 204 -583 204 -925 0 -361 -64 -645 -215 -955 -411 -845 -1350
-1291 -2315 -1099 -869 173 -1519 872 -1635 1757 -20 154 -20 442 1 589 85
624 424 1152 949 1483 373 235 873 350 1326 305z"/>
</g>
</svg>
